<?xml version="1.0" ?><svg xmlns="http://www.w3.org/2000/svg" xmlns:xlink="http://www.w3.org/1999/xlink" version="1.1" viewBox="0 0 512 512" style="enable-background:new 0 0 512 512;" xml:space="preserve"><g id="_x33_5_x2C__Car_Engine_x2C__Electric_Car_x2C__Transportation_x2C__Electric_x2C__Electronics_x2C__Engine_x2C__Power_x2C__Technology"><g><path d="M441,146h-40c-16.542,0-30,13.458-30,30v10h-50v-20c0-5.523-4.478-10-10-10h-30v-40h40c5.522,0,10-4.478,10-10V66    c0-5.522-4.478-10-10-10H151c-5.523,0-10,4.478-10,10v40c0,5.522,4.477,10,10,10h40v40h-30c-5.523,0-10,4.477-10,10v20H91    c-16.542,0-30,13.458-30,30v55H11c-5.523,0-10,4.478-10,10v40c0,5.522,4.477,10,10,10h50v55c0,16.542,13.458,30,30,30h60v20    c0,5.522,4.477,10,10,10h150c5.522,0,10-4.478,10-10v-20h50v10c0,16.542,13.458,30,30,30h40c38.598,0,70-31.402,70-70V216    C511,177.402,479.598,146,441,146z M161,76h150v20H161V76z M211,116h50v40h-50V116z M21,311v-20h40v20H21z M311,396    c-5.522,0-10,4.478-10,10v20H171v-20c0-5.522-4.477-10-10-10h-41.72c1.11-3.13,1.72-6.494,1.72-10V216c0-3.506-0.61-6.87-1.72-10    H161c5.523,0,10-4.477,10-10v-20h130v20c0,5.523,4.478,10,10,10h60v190H311z M491,386c0,27.57-22.43,50-50,50h-40    c-5.514,0-10-4.486-10-10c0-9.75,0-231.5,0-250c0-5.514,4.486-10,10-10h40c27.57,0,50,22.43,50,50V386z"/><path d="M311,261h-48.107l17.123-35.673C283.199,218.695,278.354,211,271,211h-50c-3.952,0-7.533,2.327-9.138,5.939l-40,90    C168.926,313.546,173.772,321,181,321h36.743l-16.358,57.253c-1.837,6.427,3.03,12.747,9.611,12.747    c2.747,0,5.455-1.13,7.403-3.273l100-110C324.234,271.307,319.655,261,311,261z"/><path d="M441,206c-5.522,0-10,4.477-10,10v130c0,5.522,4.478,10,10,10s10-4.478,10-10V216C451,210.477,446.522,206,441,206z"/><circle cx="441" cy="385.95" r="9.994"/></g></g><g id="Layer_1"/></svg>