<?xml version="1.0" ?><svg id="Layer_1_1_" style="enable-background:new 0 0 64 64;" version="1.1" viewBox="0 0 64 64" xml:space="preserve" xmlns="http://www.w3.org/2000/svg" xmlns:xlink="http://www.w3.org/1999/xlink"><g><path d="M54,27H35v-2h1.566l4.952-8.254C42.487,15.131,43,13.281,43,11.397C43,5.664,38.336,1,32.603,1h-1.205   C25.664,1,21,5.664,21,11.397c0,1.884,0.513,3.734,1.481,5.35L27.434,25H29v2H10c-1.654,0-3,1.346-3,3v30c0,1.654,1.346,3,3,3h44   c1.654,0,3-1.346,3-3V30C57,28.346,55.654,27,54,27z M37,61h-4V51h6v-6h4v-8h-8v-4h16v10h-4v6h-4v6h-6V61z M41,11.397   c0,0.671-0.094,1.333-0.251,1.979C37.323,12.049,35,8.733,35,5V3.353C38.465,4.388,41,7.6,41,11.397z M29,3.353V5   c0,3.733-2.323,7.049-5.749,8.376C23.094,12.73,23,12.068,23,11.397C23,7.6,25.535,4.388,29,3.353z M24.196,15.718   c-0.091-0.152-0.159-0.314-0.24-0.47C28.154,13.628,31,9.57,31,5V3.02C31.133,3.014,31.263,3,31.397,3h1.205   C32.737,3,32.867,3.014,33,3.02V5c0,4.57,2.846,8.628,7.044,10.247c-0.081,0.156-0.149,0.318-0.24,0.47L35.434,23h-6.867   L24.196,15.718z M33,25v12h-2V25H33z M29,37h-4v-4h4V37z M9,60V30c0-0.551,0.448-1,1-1h19v2h-6v8h18v4h-4v6h-6v12H10   C9.448,61,9,60.552,9,60z M55,60c0,0.552-0.448,1-1,1H39v-4h6v-6h4v-6h4V31H35v-2h19c0.552,0,1,0.449,1,1V60z"/><path d="M11,39h10v-8H11V39z M13,33h6v4h-6V33z"/><path d="M11,59h8V41h-8V59z M13,57v-2h4v2H13z M17,51v2h-4v-2H17z M13,49v-2h4v2H13z M17,43v2h-4v-2H17z"/></g></svg>